<svg xmlns="http://www.w3.org/2000/svg" version="1.1" viewBox="-5.0 -10.0 110.0 135.0">
 <path d="m53.949 18.988h0.003906c3.9102 0 7.082 3.1758 7.082 7.0898v0.14062 5.7383h-22.074v-5.7383-0.14062c0-3.8828 3.1211-7.0391 6.9922-7.0898h0.003906-0.003906zm15.68 16.16 6.2305 45.855h-51.723l6.2344-45.855h5.3945v8.5625h-0.003906c-0.89844 0.54297-1.5 1.5273-1.5 2.6562 0 1.7148 1.3867 3.1055 3.1016 3.1055 1.7148 0 3.1055-1.3906 3.1055-3.1055 0-1.1289-0.60156-2.1133-1.5039-2.6562h-0.003906v-8.5625h22.074v8.5625h-0.003906c-0.89844 0.54297-1.5 1.5273-1.5 2.6562 0 1.7148 1.3867 3.1055 3.1016 3.1055 1.7148 0 3.1055-1.3906 3.1055-3.1055 0-1.1289-0.60156-2.1133-1.5039-2.6562h-0.003906v-8.5625zm-23.578-19.355c-5.6797 0-10.285 4.6016-10.285 10.285v0.015625 5.8633h-6.7852v-0.003906h-0.003907c-0.8125 0-1.4805 0.60938-1.5781 1.3984l-6.6758 49.035c-0.0625 0.45703 0.078125 0.89844 0.35156 1.2305l-0.003907 0.003906c0.29297 0.35156 0.73438 0.57812 1.2305 0.57812h55.395c0.49609 0 0.9375-0.22656 1.2305-0.57812h-0.003906c0.27344-0.33594 0.41406-0.77734 0.35156-1.2344l-6.6719-49.035c-0.10156-0.78906-0.77344-1.3984-1.5859-1.3984l-6.7852 0.003906v-5.7305 0.003907-0.15234c0-5.6836-4.6055-10.285-10.285-10.285z"/>
</svg>